<?xml version="1.0" encoding="utf-8"?>
<!-- Generator: Adobe Illustrator 20.0.0, SVG Export Plug-In . SVG Version: 6.00 Build 0)  -->
<svg version="1.1" id="Layer_1" xmlns="http://www.w3.org/2000/svg" xmlns:xlink="http://www.w3.org/1999/xlink" x="0px" y="0px"
	 viewBox="0 0 820 232" style="enable-background:new 0 0 820 232;" xml:space="preserve">
<style type="text/css">
	.st0{fill:#616161;}
	.st1{fill:#54C5F8;}
	.st2{fill:#01579B;}
	.st3{fill:#29B6F6;}
	.st4{opacity:0.75;fill:url(#SVGID_1_);}
	.st5{opacity:0.5;fill:url(#SVGID_2_);}
</style>
<g>
	<g>
		<path class="st0" d="M337,120.4h-69v66.5h-11.6V45.1h90.5V55H268v55.4h69V120.4z"/>
		<path class="st0" d="M381.3,186.9h-11.6v-152h11.6V186.9z"/>
		<path class="st0" d="M482.6,169.7c-3.4,6.2-7.9,10.9-13.6,14.3c-5.7,3.3-12.5,5-20.3,5c-11.1,0-19.8-3.8-26.1-11.3
			c-6.3-7.5-9.4-19.2-9.4-35.1V81.5h11.7v61.4c0,12.9,2.2,22.1,6.6,27.7c4.4,5.6,10.6,8.4,18.7,8.4c8.8,0,15.9-2,21.1-6
			s8.9-9.4,11-16.4V81.5h11.7v105.4h-10.3L482.6,169.7z"/>
		<path class="st0" d="M542.9,54.5v27h23.2v9.5h-23.2v68.7c0,6.9,1.3,11.8,3.8,14.7c2.5,2.9,5.8,4.3,10,4.3c1.9,0,3.7-0.1,5.5-0.2
			c1.8-0.2,3.8-0.4,6.2-0.8l1.8,8.7c-1.9,0.8-4.3,1.5-7.1,1.9c-2.8,0.5-5.6,0.7-8.4,0.7c-7.4,0-13.2-2.3-17.3-7
			c-4.1-4.7-6.2-12.1-6.2-22.2V91.1h-18.2v-9.5h18.2v-27H542.9z"/>
		<path class="st0" d="M609.2,54.5v27h23.2v9.5h-23.2v68.7c0,6.9,1.3,11.8,3.8,14.7c2.5,2.9,5.8,4.3,10,4.3c1.9,0,3.7-0.1,5.5-0.2
			c1.8-0.2,3.8-0.4,6.2-0.8l1.8,8.7c-1.9,0.8-4.3,1.5-7.1,1.9c-2.8,0.5-5.6,0.7-8.4,0.7c-7.4,0-13.2-2.3-17.3-7
			c-4.1-4.7-6.2-12.1-6.2-22.2V91.1h-18.2v-9.5h18.2v-27H609.2z"/>
		<path class="st0" d="M696.7,189c-13.2,0-24.1-4.9-32.9-14.6c-8.7-9.7-13.1-22.1-13.1-37V132c0-15.1,4.3-27.6,13-37.5
			c8.7-9.9,19.2-14.9,31.5-14.9c12.9,0,23.1,4.1,30.5,12.3c7.4,8.2,11.1,19.1,11.1,32.7v9.9h-74.4v2.8c0,11.9,3.2,21.8,9.5,29.7
			c6.3,8,14.6,12,24.8,12c7.3,0,13.5-1,18.6-3c5.1-2,9.5-4.9,13.2-8.7l5,8c-4,4.2-9,7.5-15.1,10C712.3,187.7,705.1,189,696.7,189z
			 M695.2,89.5c-8.6,0-15.9,3.3-21.7,9.9c-5.8,6.6-9.3,14.8-10.2,24.7l0.2,0.5h61.8v-2.9c0-9.1-2.7-16.8-8.1-22.9
			C711.8,92.6,704.5,89.5,695.2,89.5z"/>
		<path class="st0" d="M808.4,91.5l-8.7-0.6c-7.3,0-13.4,2.1-18.1,6.2c-4.7,4.1-8.1,9.8-10.1,17v72.8h-11.7V81.5h10.2l1.5,17.5v1.2
			c3.1-6.5,7.1-11.6,12.3-15.2c5.1-3.6,11.2-5.5,18.3-5.5c1.5,0,2.9,0.1,4.3,0.3c1.4,0.2,2.5,0.5,3.5,0.7L808.4,91.5z"/>
	</g>
	<polygon class="st1" points="42.7,148.7 10,116 116.2,9.8 181.6,9.8 	"/>
	<polygon class="st2" points="91.7,197.7 116.2,222.2 181.6,222.2 181.6,222.2 124.4,165 	"/>
	<polygon class="st1" points="181.6,107.8 181.6,107.8 181.6,107.8 116.2,107.8 91.7,132.3 124.4,165 	"/>
	
		<rect x="68.6" y="141.9" transform="matrix(0.7071 -0.7071 0.7071 0.7071 -89.8301 113.1772)" class="st3" width="46.2" height="46.2"/>
	
		<linearGradient id="SVGID_1_" gradientUnits="userSpaceOnUse" x1="107.3148" y1="52.6747" x2="55.3319" y2="60.0097" gradientTransform="matrix(1 0 0 1 37.9092 123.4389)">
		<stop  offset="0.269" style="stop-color:#FFFFFF"/>
		<stop  offset="0.4093" style="stop-color:#FCFCFC"/>
		<stop  offset="0.4972" style="stop-color:#F4F4F4"/>
		<stop  offset="0.5708" style="stop-color:#E5E5E5"/>
		<stop  offset="0.6364" style="stop-color:#D1D1D1"/>
		<stop  offset="0.6968" style="stop-color:#B6B6B6"/>
		<stop  offset="0.7533" style="stop-color:#959595"/>
		<stop  offset="0.8058" style="stop-color:#6E6E6E"/>
		<stop  offset="0.8219" style="stop-color:#616161"/>
	</linearGradient>
	<polygon class="st4" points="91.7,197.7 140.2,180.9 124.4,165 	"/>
	
		<linearGradient id="SVGID_2_" gradientUnits="userSpaceOnUse" x1="78.1263" y1="65.9179" x2="68.3647" y2="56.1564" gradientTransform="matrix(1 0 0 1 37.9092 123.4389)">
		<stop  offset="0.4588" style="stop-color:#FFFFFF"/>
		<stop  offset="0.5509" style="stop-color:#FCFCFC"/>
		<stop  offset="0.6087" style="stop-color:#F4F4F4"/>
		<stop  offset="0.657" style="stop-color:#E5E5E5"/>
		<stop  offset="0.7001" style="stop-color:#D1D1D1"/>
		<stop  offset="0.7397" style="stop-color:#B6B6B6"/>
		<stop  offset="0.7768" style="stop-color:#959595"/>
		<stop  offset="0.8113" style="stop-color:#6E6E6E"/>
		<stop  offset="0.8219" style="stop-color:#616161"/>
	</linearGradient>
	<polygon class="st5" points="124.4,165 91.7,197.7 99.4,205.4 132.1,172.8 	"/>
</g>
</svg>
