<?xml version="1.0" encoding="utf-8"?>
<!-- Generator: Adobe Illustrator 20.0.0, SVG Export Plug-In . SVG Version: 6.00 Build 0)  -->
<svg version="1.1" id="Layer_1" xmlns="http://www.w3.org/2000/svg" xmlns:xlink="http://www.w3.org/1999/xlink" x="0px" y="0px"
	 viewBox="0 0 252 306" style="enable-background:new 0 0 252 306;" xml:space="preserve">
<style type="text/css">
	.st0{fill:#54C5F8;}
	.st1{fill:#01579B;}
	.st2{fill:#29B6F6;}
	.st3{opacity:0.75;fill:url(#SVGID_1_);}
	.st4{opacity:0.5;fill:url(#SVGID_2_);}
	.st5{fill:#616161;}
</style>
<g>
	<polygon class="st0" points="70.7,128.3 42.8,100.4 133.4,9.8 189.1,9.8 	"/>
	<polygon class="st1" points="112.5,170.1 133.4,191 189.1,191 189.1,191 140.4,142.3 	"/>
	<polygon class="st0" points="189.1,93.5 189.1,93.5 189.1,93.5 133.4,93.5 112.5,114.4 140.4,142.3 	"/>
	
		<rect x="92.8" y="122.5" transform="matrix(0.7071 -0.7071 0.7071 0.7071 -67.6479 121.2029)" class="st2" width="39.4" height="39.4"/>
	
		<linearGradient id="SVGID_1_" gradientUnits="userSpaceOnUse" x1="120.2261" y1="28.2812" x2="75.8843" y2="34.538" gradientTransform="matrix(1 0 0 1 37.9092 123.4389)">
		<stop  offset="0.269" style="stop-color:#FFFFFF"/>
		<stop  offset="0.4093" style="stop-color:#FCFCFC"/>
		<stop  offset="0.4972" style="stop-color:#F4F4F4"/>
		<stop  offset="0.5708" style="stop-color:#E5E5E5"/>
		<stop  offset="0.6364" style="stop-color:#D1D1D1"/>
		<stop  offset="0.6968" style="stop-color:#B6B6B6"/>
		<stop  offset="0.7533" style="stop-color:#959595"/>
		<stop  offset="0.8058" style="stop-color:#6E6E6E"/>
		<stop  offset="0.8219" style="stop-color:#616161"/>
	</linearGradient>
	<polygon class="st3" points="112.5,170.1 153.8,155.8 140.4,142.3 	"/>
	
		<linearGradient id="SVGID_2_" gradientUnits="userSpaceOnUse" x1="95.328" y1="39.5778" x2="87.0014" y2="31.2511" gradientTransform="matrix(1 0 0 1 37.9092 123.4389)">
		<stop  offset="0.4588" style="stop-color:#FFFFFF"/>
		<stop  offset="0.5509" style="stop-color:#FCFCFC"/>
		<stop  offset="0.6087" style="stop-color:#F4F4F4"/>
		<stop  offset="0.657" style="stop-color:#E5E5E5"/>
		<stop  offset="0.7001" style="stop-color:#D1D1D1"/>
		<stop  offset="0.7397" style="stop-color:#B6B6B6"/>
		<stop  offset="0.7768" style="stop-color:#959595"/>
		<stop  offset="0.8113" style="stop-color:#6E6E6E"/>
		<stop  offset="0.8219" style="stop-color:#616161"/>
	</linearGradient>
	<polygon class="st4" points="140.4,142.3 112.5,170.1 119.1,176.7 147,148.9 	"/>
	<g>
		<path class="st5" d="M43.8,267.4H14.9l0,27.9H10l0-59.4l37.9,0v4.2H14.9l0,23.2l28.9,0V267.4z"/>
		<path class="st5" d="M62.3,295.3h-4.9l0-63.7h4.9L62.3,295.3z"/>
		<path class="st5" d="M104.8,288.1c-1.4,2.6-3.3,4.6-5.7,6c-2.4,1.4-5.2,2.1-8.5,2.1c-4.7,0-8.3-1.6-10.9-4.7
			c-2.6-3.2-4-8.1-4-14.7l0-25.6h4.9l0,25.7c0,5.4,0.9,9.3,2.8,11.6c1.8,2.3,4.4,3.5,7.8,3.5c3.7,0,6.7-0.8,8.9-2.5s3.7-4,4.6-6.9
			l0-31.5l4.9,0l0,44.2h-4.3L104.8,288.1z"/>
		<path class="st5" d="M130.1,239.8v11.3h9.7l0,4h-9.7v28.8c0,2.9,0.5,4.9,1.6,6.1c1,1.2,2.4,1.8,4.2,1.8c0.8,0,1.6,0,2.3-0.1
			c0.7-0.1,1.6-0.2,2.6-0.3l0.7,3.6c-0.8,0.4-1.8,0.6-3,0.8c-1.2,0.2-2.3,0.3-3.5,0.3c-3.1,0-5.5-1-7.2-2.9c-1.7-2-2.6-5.1-2.6-9.3
			l0-28.8h-7.6v-4h7.6v-11.3L130.1,239.8z"/>
		<path class="st5" d="M157.8,239.8v11.3l9.7,0v4h-9.7v28.8c0,2.9,0.5,4.9,1.6,6.1c1,1.2,2.4,1.8,4.2,1.8c0.8,0,1.6,0,2.3-0.1
			c0.7-0.1,1.6-0.2,2.6-0.3l0.7,3.6c-0.8,0.4-1.8,0.6-3,0.8c-1.2,0.2-2.3,0.3-3.5,0.3c-3.1,0-5.5-1-7.2-2.9c-1.7-2-2.6-5.1-2.6-9.3
			l0-28.8h-7.6v-4h7.6v-11.3H157.8z"/>
		<path class="st5" d="M194.5,296.2c-5.5,0-10.1-2-13.8-6.1c-3.7-4.1-5.5-9.3-5.5-15.5v-2.2c0-6.3,1.8-11.6,5.5-15.7
			c3.6-4.2,8-6.2,13.2-6.2c5.4,0,9.7,1.7,12.8,5.1s4.7,8,4.7,13.7v4.2l-31.2,0v1.2c0,5,1.3,9.1,4,12.5c2.6,3.3,6.1,5,10.4,5
			c3,0,5.6-0.4,7.8-1.3c2.1-0.8,4-2.1,5.5-3.6l2.1,3.3c-1.7,1.7-3.8,3.1-6.3,4.2C201.1,295.6,198,296.2,194.5,296.2z M193.9,254.5
			c-3.6,0-6.7,1.4-9.1,4.1c-2.4,2.8-3.9,6.2-4.3,10.4l0.1,0.2h25.9v-1.2c0-3.8-1.1-7-3.4-9.6C200.8,255.8,197.8,254.5,193.9,254.5z"
			/>
		<path class="st5" d="M241.3,255.3l-3.6-0.2c-3.1,0-5.6,0.9-7.6,2.6c-2,1.7-3.4,4.1-4.2,7.1l0,30.5H221l0-44.2h4.3l0.6,7.3v0.5
			c1.3-2.7,3-4.8,5.1-6.4c2.1-1.5,4.7-2.3,7.7-2.3c0.6,0,1.2,0,1.8,0.1c0.6,0.1,1.1,0.2,1.4,0.3L241.3,255.3z"/>
	</g>
</g>
</svg>
